<svg width="18" height="18" viewBox="0 0 18 18" fill="none" xmlns="http://www.w3.org/2000/svg">
<path d="M8.08336 2.29V5.84667C8.08262 6.28963 7.9509 6.72249 7.70478 7.09079C7.45865 7.45908 7.1091 7.74637 6.70011 7.9165C6.42951 8.02813 6.13941 8.08484 5.84669 8.08333H2.29003C1.69842 8.08091 1.13186 7.84419 0.714387 7.425C0.296911 7.0058 0.0625212 6.43828 0.0625262 5.84667V2.29917C0.0625212 1.70755 0.296911 1.14003 0.714387 0.720837C1.13186 0.301643 1.69842 0.0649247 2.29003 0.0625H5.84669C6.43831 0.062495 7.00583 0.296885 7.42502 0.71436C7.84422 1.13184 8.08094 1.69839 8.08336 2.29ZM17.9375 2.29917V5.84667C17.939 6.13949 17.8821 6.42968 17.7704 6.70035C17.6587 6.97102 17.4943 7.21678 17.2867 7.42333C17.0819 7.63389 16.8367 7.8009 16.5657 7.91431C16.2948 8.02773 16.0037 8.08522 15.71 8.08333H12.1534C11.7114 8.08276 11.2795 7.95182 10.9116 7.70691C10.5438 7.462 10.2564 7.114 10.0854 6.7065C9.97205 6.4341 9.91469 6.14169 9.91669 5.84667V2.29917C9.91549 2.00555 9.97329 1.71469 10.0867 1.44384C10.2 1.173 10.3667 0.927698 10.5767 0.7225C10.7828 0.513691 11.0283 0.347841 11.2989 0.234551C11.5695 0.121261 11.86 0.0627819 12.1534 0.0625H15.71C16.3016 0.0649247 16.8682 0.301643 17.2857 0.720837C17.7031 1.14003 17.9375 1.70755 17.9375 2.29917ZM8.08336 12.1625V15.71C8.08094 16.3016 7.84422 16.8682 7.42502 17.2856C7.00583 17.7031 6.43831 17.9375 5.84669 17.9375H2.29003C1.69933 17.9363 1.13287 17.7025 0.71336 17.2867C0.505796 17.0801 0.341368 16.8344 0.229637 16.5637C0.117906 16.293 0.0611013 16.0028 0.0625262 15.71V12.1625C0.0611013 11.8697 0.117906 11.5795 0.229637 11.3088C0.341368 11.0381 0.505796 10.7924 0.71336 10.5858C1.13102 10.1649 1.69712 9.92466 2.29003 9.91667H5.84669C6.43999 9.92149 7.00748 10.1599 7.42616 10.5803C7.84484 11.0007 8.08097 11.5692 8.08336 12.1625ZM17.9375 13.9317C17.9357 14.7232 17.6995 15.4964 17.2586 16.1537C16.8177 16.8111 16.192 17.3231 15.4604 17.6252C14.7288 17.9272 13.9242 18.0058 13.148 17.8509C12.3718 17.696 11.6588 17.3147 11.0992 16.755C10.5395 16.1954 10.1581 15.4824 10.0033 14.7062C9.84843 13.93 9.92699 13.1254 10.229 12.3938C10.5311 11.6622 11.0431 11.0365 11.7005 10.5956C12.3578 10.1547 13.131 9.91848 13.9225 9.91667C14.7168 9.91888 15.4927 10.1555 16.153 10.597C16.8133 11.0384 17.3285 11.665 17.6341 12.3981C17.8358 12.8839 17.9384 13.4055 17.9375 13.9317Z" fill="#8C8C8C"/>
</svg>
