<svg width="18" height="19" viewBox="0 0 18 19" fill="none" xmlns="http://www.w3.org/2000/svg">
<path fill-rule="evenodd" clip-rule="evenodd" d="M9.00269 0C6.63358 0 4.47531 0.782536 3.19818 1.42189C3.08279 1.47958 2.9751 1.53588 2.87509 1.59077C2.67684 1.69882 2.50795 1.79952 2.37368 1.88816L3.82652 4.02702L4.51045 4.29923C7.18324 5.64769 10.7676 5.64769 13.4409 4.29923L14.2171 3.89642L15.5908 1.88816C15.3059 1.70307 15.0101 1.53545 14.7049 1.38622C13.4341 0.753689 11.3272 0 9.00321 0M5.62446 2.42104C5.11012 2.32424 4.60203 2.19674 4.10292 2.03921C5.29928 1.5079 7.08201 0.944079 9.00321 0.944079C10.3338 0.944079 11.5921 1.21471 12.6327 1.55773C11.4132 1.72924 10.112 2.02033 8.87209 2.37855C7.89654 2.66073 6.75631 2.63031 5.62446 2.42104ZM13.9953 5.07704L13.8663 5.14208C10.926 6.62533 7.02589 6.62533 4.08561 5.14208L3.96341 5.08019C-0.454356 9.92699 -3.82681 18.88 9.00269 18.88C21.8322 18.88 18.3779 9.76072 13.9953 5.07704ZM8.45775 9.44079C8.17954 9.44079 7.91273 9.5513 7.71601 9.74802C7.51929 9.94475 7.40877 10.2116 7.40877 10.4898C7.40877 10.768 7.51929 11.0348 7.71601 11.2315C7.91273 11.4282 8.17954 11.5387 8.45775 11.5387V9.44079ZM9.50672 8.39181V7.86732H8.45775V8.39181C7.90133 8.39181 7.36771 8.61284 6.97427 9.00629C6.58083 9.39973 6.35979 9.93335 6.35979 10.4898C6.35979 11.0462 6.58083 11.5798 6.97427 11.9732C7.36771 12.3667 7.90133 12.5877 8.45775 12.5877V14.6857C8.00144 14.6857 7.6128 14.3946 7.46804 13.9865C7.44656 13.9198 7.41191 13.858 7.36614 13.8049C7.32038 13.7517 7.26442 13.7083 7.20158 13.6772C7.13874 13.646 7.07029 13.6278 7.00029 13.6236C6.93029 13.6194 6.86015 13.6293 6.79402 13.6526C6.7279 13.676 6.66714 13.7124 6.61532 13.7596C6.5635 13.8069 6.52169 13.8641 6.49236 13.9277C6.46302 13.9914 6.44676 14.0604 6.44453 14.1305C6.4423 14.2006 6.45415 14.2704 6.47938 14.3358C6.62399 14.745 6.8919 15.0992 7.24622 15.3497C7.60053 15.6002 8.02381 15.7347 8.45775 15.7346V16.2591H9.50672V15.7346C10.0631 15.7346 10.5968 15.5136 10.9902 15.1202C11.3836 14.7267 11.6047 14.1931 11.6047 13.6367C11.6047 13.0803 11.3836 12.5467 10.9902 12.1532C10.5968 11.7598 10.0631 11.5387 9.50672 11.5387V9.44079C9.96303 9.44079 10.3517 9.73188 10.4964 10.1399C10.5179 10.2067 10.5526 10.2685 10.5983 10.3216C10.6441 10.3747 10.7001 10.4181 10.7629 10.4493C10.8257 10.4804 10.8942 10.4986 10.9642 10.5028C11.0342 10.5071 11.1043 10.4972 11.1704 10.4738C11.2366 10.4505 11.2973 10.4141 11.3491 10.3668C11.401 10.3196 11.4428 10.2624 11.4721 10.1987C11.5014 10.135 11.5177 10.0661 11.5199 9.99598C11.5222 9.92588 11.5103 9.85605 11.4851 9.79062C11.3405 9.38149 11.0726 9.02727 10.7183 8.77675C10.3639 8.52623 9.94066 8.39174 9.50672 8.39181ZM9.50672 12.5877V14.6857C9.78493 14.6857 10.0517 14.5752 10.2485 14.3784C10.4452 14.1817 10.5557 13.9149 10.5557 13.6367C10.5557 13.3585 10.4452 13.0917 10.2485 12.895C10.0517 12.6982 9.78493 12.5877 9.50672 12.5877Z" fill="#8C8C8C"/>
</svg>
